SplineFontDB: 3.2
FontName: happy_virus
FullName: happy virus
FamilyName: happy_virus
Weight: Bold
Copyright: Copyright (c) 2020, Jaro Habiger
UComments: "1980-1-1: Created with FontForge (http://fontforge.org)"
Version: 001.000
ItalicAngle: 0
UnderlinePosition: -16
UnderlineWidth: 8
Ascent: 83
Descent: 81
InvalidEm: 0
LayerCount: 2
Layer: 0 0 "Back" 1
Layer: 1 0 "Fore" 0
XUID: [1021 473 292571826 5543819]
OS2Version: 0
OS2_WeightWidthSlopeOnly: 0
OS2_UseTypoMetrics: 1
CreationTime: 315532800
ModificationTime: 315532800
OS2TypoAscent: 0
OS2TypoAOffset: 1
OS2TypoDescent: 0
OS2TypoDOffset: 1
OS2TypoLinegap: 0
OS2WinAscent: 0
OS2WinAOffset: 1
OS2WinDescent: 0
OS2WinDOffset: 1
HheadAscent: 0
HheadAOffset: 1
HheadDescent: 0
HheadDOffset: 1
OS2Vendor: 'PfEd'
Lookup: 258 0 0 "kern" { "kern-1" [24,0,2] } ['kern' ('DFLT' <'dflt' > 'latn' <'dflt' > ) ]
MarkAttachClasses: 1
DEI: 91125
KernClass2: 13 9 "kern-1"
 1 f
 1 s
 1 r
 5 i k x
 1 w
 1 z
 11 b e h m o p
 1 a
 1 t
 3 c u
 1 n
 1 v
 25 a d e g m o p q r v w x y
 1 s
 1 i
 1 j
 1 z
 1 t
 3 c u
 1 n
 0 {} 0 {} 0 {} 0 {} 0 {} 0 {} 0 {} 0 {} 0 {} 0 {} -16 {} -16 {} -8 {} -30 {} -20 {} -10 {} -16 {} -16 {} 0 {} -8 {} -25 {} 0 {} -18 {} 0 {} 0 {} -4 {} -8 {} 0 {} 0 {} -20 {} 0 {} -14 {} 0 {} 0 {} -4 {} -8 {} 0 {} 0 {} 0 {} 0 {} -18 {} 0 {} 0 {} 0 {} 0 {} 0 {} 0 {} -8 {} 0 {} -21 {} 0 {} 0 {} -4 {} -4 {} 0 {} 0 {} 0 {} 0 {} -15 {} -25 {} -10 {} -4 {} 0 {} 0 {} 0 {} -8 {} 0 {} -18 {} -4 {} -8 {} 0 {} 0 {} 0 {} 0 {} 0 {} 0 {} -18 {} -4 {} -8 {} 0 {} 0 {} 0 {} -4 {} -10 {} 0 {} -18 {} 0 {} 0 {} -4 {} -8 {} 0 {} 0 {} 0 {} 0 {} -18 {} 0 {} 0 {} 0 {} 0 {} 0 {} 0 {} 0 {} 0 {} -18 {} -8 {} -8 {} 0 {} 0 {} 0 {} -6 {} -20 {} 0 {} -21 {} 0 {} 0 {} -4 {} -4 {}
Encoding: ISO8859-1
UnicodeInterp: none
NameList: AGL For New Fonts
DisplaySize: -48
AntiAlias: 1
FitToEm: 0
BeginPrivate: 0
EndPrivate
BeginChars: 256 27

StartChar: a
Encoding: 97 97 0
Width: 64
VWidth: 131
Flags: HW
LayerCount: 2
Fore
SplineSet
28.58984375 0.5673828125 m 0
 31.99609375 0.5673828125 32.013671875 5.8583984375 28.58984375 5.8583984375 c 0
 17.556640625 5.8583984375 8.6455078125 14.732421875 8.6455078125 25.6455078125 c 0
 8.6455078125 36.5595703125 17.5576171875 45.43359375 28.58984375 45.43359375 c 0
 39.62109375 45.43359375 48.533203125 36.5595703125 48.533203125 25.6455078125 c 2
 48.533203125 3.212890625 l 2
 48.533203125 -0.193359375 53.82421875 -0.2109375 53.82421875 3.212890625 c 2
 53.82421875 25.6455078125 l 2
 53.82421875 39.5107421875 42.509765625 50.724609375 28.58984375 50.724609375 c 0
 14.6689453125 50.724609375 3.3544921875 39.5107421875 3.3544921875 25.6455078125 c 0
 3.3544921875 11.78125 14.669921875 0.5673828125 28.58984375 0.5673828125 c 0
EndSplineSet
EndChar

StartChar: b
Encoding: 98 98 1
Width: 63
VWidth: 131
Flags: HW
LayerCount: 2
Fore
SplineSet
28.431640625 50.72265625 m 0
 25.025390625 50.72265625 25.0078125 45.431640625 28.431640625 45.431640625 c 0
 39.359375 45.431640625 48.216796875 36.57421875 48.216796875 25.6455078125 c 0
 48.216796875 14.7177734375 39.359375 5.8603515625 28.431640625 5.8603515625 c 0
 17.5029296875 5.8603515625 8.6455078125 14.7177734375 8.6455078125 25.6455078125 c 2
 8.6455078125 78.2744140625 l 2
 8.6455078125 81.6806640625 3.3544921875 81.6982421875 3.3544921875 78.2744140625 c 2
 3.3544921875 25.6455078125 l 2
 3.3544921875 11.7978515625 14.5830078125 0.5693359375 28.431640625 0.5693359375 c 0
 42.279296875 0.5693359375 53.5078125 11.7978515625 53.5078125 25.6455078125 c 0
 53.5078125 39.494140625 42.279296875 50.72265625 28.431640625 50.72265625 c 0
EndSplineSet
EndChar

StartChar: c
Encoding: 99 99 2
Width: 57
VWidth: 131
Flags: HW
LayerCount: 2
Fore
SplineSet
8.6455078125 25.6416015625 m 0
 8.6455078125 42.7236328125 30.1708984375 51.919921875 42.447265625 39.6435546875 c 0
 44.8408203125 37.2490234375 48.615234375 40.95703125 46.1875 43.3837890625 c 0
 36.3876953125 53.1845703125 20.50390625 53.1845703125 10.7041015625 43.3837890625 c 0
 0.9033203125 33.583984375 0.9033203125 17.7001953125 10.7041015625 7.900390625 c 0
 20.50390625 -1.900390625 36.3876953125 -1.900390625 46.1875 7.900390625 c 0
 48.58203125 10.2939453125 44.8740234375 14.068359375 42.447265625 11.640625 c 0
 30.1875 -0.6181640625 8.6455078125 8.533203125 8.6455078125 25.6416015625 c 0
EndSplineSet
EndChar

StartChar: d
Encoding: 100 100 3
Width: 63
VWidth: 131
Flags: HW
LayerCount: 2
Fore
SplineSet
28.431640625 45.53515625 m 0
 31.837890625 45.53515625 31.85546875 50.826171875 28.431640625 50.826171875 c 0
 14.5830078125 50.826171875 3.3544921875 39.59765625 3.3544921875 25.7490234375 c 0
 3.3544921875 11.9013671875 14.5830078125 0.6728515625 28.431640625 0.6728515625 c 0
 42.279296875 0.6728515625 53.5078125 11.9013671875 53.5078125 25.7490234375 c 2
 53.5078125 78.2744140625 l 2
 53.5078125 81.6806640625 48.216796875 81.6982421875 48.216796875 78.2744140625 c 2
 48.216796875 25.7490234375 l 2
 48.216796875 14.8212890625 39.359375 5.9638671875 28.431640625 5.9638671875 c 0
 17.5029296875 5.9638671875 8.6455078125 14.8212890625 8.6455078125 25.7490234375 c 0
 8.6455078125 36.677734375 17.5029296875 45.53515625 28.431640625 45.53515625 c 0
EndSplineSet
EndChar

StartChar: e
Encoding: 101 101 4
Width: 63
VWidth: 131
Flags: HW
LayerCount: 2
Fore
SplineSet
45.9814453125 7.0693359375 m 0
 48.375 9.46484375 44.666015625 13.2373046875 42.2392578125 10.8095703125 c 0
 39.041015625 7.6103515625 34.349609375 5.0458984375 28.3251953125 5.0458984375 c 0
 17.455078125 5.0458984375 8.6455078125 13.85546875 8.6455078125 24.724609375 c 0
 8.6455078125 35.5947265625 17.455078125 44.404296875 28.3251953125 44.404296875 c 0
 38.2978515625 44.404296875 46.53515625 36.9892578125 47.8271484375 27.3701171875 c 1
 28.251953125 27.3701171875 l 2
 24.845703125 27.3701171875 24.828125 22.0791015625 28.251953125 22.0791015625 c 2
 50.6494140625 22.0791015625 l 2
 52.109375 22.0791015625 53.294921875 23.2646484375 53.294921875 24.724609375 c 0
 53.294921875 38.5146484375 42.1142578125 49.6953125 28.3251953125 49.6953125 c 0
 14.53515625 49.6953125 3.3544921875 38.5146484375 3.3544921875 24.724609375 c 0
 3.3544921875 7.9248046875 20.6787109375 -5.623046875 38.04296875 1.7158203125 c 0
 41.0302734375 2.9794921875 43.7216796875 4.80859375 45.9814453125 7.0693359375 c 0
EndSplineSet
EndChar

StartChar: f
Encoding: 102 102 5
Width: 42
VWidth: 131
Flags: HW
LayerCount: 2
Fore
SplineSet
29.103515625 75.62890625 m 0
 32.509765625 75.62890625 32.52734375 80.919921875 29.103515625 80.919921875 c 0
 14.8837890625 80.919921875 3.3544921875 69.390625 3.3544921875 55.1708984375 c 2
 3.3544921875 2.6455078125 l 2
 3.3544921875 -0.7607421875 8.6455078125 -0.7783203125 8.6455078125 2.6455078125 c 2
 8.6455078125 55.1708984375 l 2
 8.6455078125 66.470703125 17.8037109375 75.62890625 29.103515625 75.62890625 c 0
EndSplineSet
EndChar

StartChar: g
Encoding: 103 103 6
Width: 65
VWidth: 131
Flags: HW
LayerCount: 2
Fore
SplineSet
29.001953125 -75.78125 m 0
 25.595703125 -75.78125 25.578125 -81.072265625 29.001953125 -81.072265625 c 0
 43.3046875 -81.072265625 54.9306640625 -69.55078125 54.9306640625 -55.3046875 c 0
 54.9443359375 -28.5322265625 54.8818359375 -1.8349609375 54.8525390625 24.896484375 c 0
 54.8525390625 39.1162109375 43.3232421875 50.6455078125 29.103515625 50.6455078125 c 0
 14.8837890625 50.6455078125 3.3544921875 39.1162109375 3.3544921875 24.896484375 c 0
 3.3544921875 10.6767578125 14.8837890625 -0.8525390625 29.103515625 -0.8525390625 c 0
 32.509765625 -0.8525390625 32.52734375 4.4384765625 29.103515625 4.4384765625 c 0
 17.8037109375 4.4384765625 8.6455078125 13.5966796875 8.6455078125 24.896484375 c 0
 8.6455078125 36.1962890625 17.8037109375 45.3544921875 29.103515625 45.3544921875 c 0
 40.4033203125 45.3544921875 49.5615234375 36.1962890625 49.5615234375 24.896484375 c 0
 49.58984375 -1.8349609375 49.65234375 -28.53125 49.6396484375 -55.3046875 c 0
 49.6396484375 -66.599609375 40.41796875 -75.78125 29.001953125 -75.78125 c 0
EndSplineSet
EndChar

StartChar: h
Encoding: 104 104 7
Width: 72
VWidth: 131
Flags: HW
LayerCount: 2
Fore
SplineSet
53.279296875 41.791015625 m 0
 40.1982421875 54.873046875 18.5712890625 52.0263671875 8.6455078125 37.8974609375 c 1
 8.6455078125 78.2744140625 l 2
 8.6455078125 81.6806640625 3.3544921875 81.6982421875 3.3544921875 78.2744140625 c 2
 3.3544921875 21.0732421875 l 2
 3.3642578125 13.603515625 6.21875 6.134765625 11.9208984375 0.4326171875 c 0
 14.314453125 -1.9619140625 18.0888671875 1.74609375 15.6611328125 4.1728515625 c 0
 6.30859375 13.5263671875 6.30859375 28.697265625 15.6611328125 38.05078125 c 0
 25.0146484375 47.4033203125 40.185546875 47.4033203125 49.5390625 38.05078125 c 0
 58.892578125 28.697265625 58.892578125 13.52734375 49.5390625 4.1728515625 c 0
 47.14453125 1.779296875 50.8525390625 -1.9951171875 53.279296875 0.4326171875 c 0
 64.703125 11.85546875 64.7021484375 30.3681640625 53.279296875 41.791015625 c 0
EndSplineSet
EndChar

StartChar: i
Encoding: 105 105 8
Width: 18
VWidth: 131
Flags: HW
LayerCount: 2
Fore
SplineSet
3.3544921875 2.6455078125 m 2
 3.3544921875 -0.7607421875 8.6455078125 -0.7783203125 8.6455078125 2.6455078125 c 2
 8.6455078125 48.103515625 l 2
 8.6455078125 51.509765625 3.3544921875 51.52734375 3.3544921875 48.103515625 c 2
 3.3544921875 2.6455078125 l 2
EndSplineSet
EndChar

StartChar: j
Encoding: 106 106 9
Width: 42
VWidth: 131
Flags: HW
LayerCount: 2
Fore
SplineSet
6 -75.6357421875 m 0
 2.59375 -75.6357421875 2.576171875 -80.9267578125 6 -80.9267578125 c 0
 20.3037109375 -80.9267578125 31.9287109375 -69.404296875 31.9287109375 -55.1591796875 c 0
 31.9345703125 -20.705078125 31.8759765625 13.68359375 31.8505859375 48.1064453125 c 0
 31.84765625 51.5107421875 26.5595703125 51.5263671875 26.5595703125 48.103515625 c 0
 26.583984375 13.681640625 26.6435546875 -20.7060546875 26.6376953125 -55.1591796875 c 0
 26.6376953125 -66.453125 17.4150390625 -75.6357421875 6 -75.6357421875 c 0
EndSplineSet
EndChar

StartChar: k
Encoding: 107 107 10
Width: 64
VWidth: 131
Flags: HW
LayerCount: 2
Fore
SplineSet
3.3544921875 2.6455078125 m 2
 3.3544921875 -0.7607421875 8.6455078125 -0.7783203125 8.6455078125 2.6455078125 c 2
 8.6455078125 32.3623046875 l 1
 13.3779296875 26.236328125 20.771484375 22.29296875 29.4150390625 22.572265625 c 0
 40.0185546875 22.138671875 48.478515625 13.408203125 48.478515625 2.697265625 c 0
 48.478515625 -0.708984375 53.76953125 -0.7265625 53.76953125 2.697265625 c 0
 53.76953125 12.5498046875 48.1103515625 21.0830078125 39.8642578125 25.2197265625 c 1
 48.1103515625 29.357421875 53.76953125 37.890625 53.76953125 47.7421875 c 0
 53.76953125 51.1484375 48.478515625 51.166015625 48.478515625 47.7421875 c 0
 48.478515625 36.82421875 39.763671875 27.880859375 28.5869140625 27.880859375 c 0
 17.5390625 27.880859375 8.6953125 36.7548828125 8.6953125 47.7421875 c 0
 8.6953125 57.818359375 8.6455078125 68.115234375 8.6455078125 78.2744140625 c 0
 8.6455078125 81.6806640625 3.3544921875 81.6982421875 3.3544921875 78.2744140625 c 2
 3.3544921875 2.6455078125 l 2
EndSplineSet
EndChar

StartChar: l
Encoding: 108 108 11
Width: 18
VWidth: 131
Flags: HW
LayerCount: 2
Fore
SplineSet
3.3544921875 2.6455078125 m 2
 3.3544921875 -0.7607421875 8.6455078125 -0.7783203125 8.6455078125 2.6455078125 c 2
 8.6455078125 78.2744140625 l 2
 8.6455078125 81.6806640625 3.3544921875 81.6982421875 3.3544921875 78.2744140625 c 2
 3.3544921875 2.6455078125 l 2
EndSplineSet
EndChar

StartChar: m
Encoding: 109 109 12
Width: 123
VWidth: 131
Flags: HW
LayerCount: 2
Fore
SplineSet
58.49609375 33.23046875 m 1
 50.7587890625 50.0693359375 26.4814453125 56.255859375 11.8154296875 41.591796875 c 0
 0.533203125 30.30859375 0.533203125 12.021484375 11.8154296875 0.740234375 c 0
 14.208984375 -1.654296875 17.9833984375 2.0537109375 15.5556640625 4.48046875 c 0
 6.34375 13.693359375 6.3427734375 28.63671875 15.5556640625 37.849609375 c 0
 24.76953125 47.0625 39.712890625 47.0625 48.92578125 37.8505859375 c 0
 58.12890625 28.646484375 58.138671875 13.6923828125 48.92578125 4.4814453125 c 0
 46.53125 2.0869140625 50.2392578125 -1.6875 52.666015625 0.7392578125 c 0
 58.2734375 6.3466796875 61.15625 13.671875 61.1552734375 21.16796875 c 0
 61.1552734375 27.20703125 63.4609375 33.244140625 68.06640625 37.8505859375 c 0
 77.279296875 47.0625 92.22265625 47.0625 101.435546875 37.8505859375 c 0
 110.6484375 28.6376953125 110.6484375 13.693359375 101.435546875 4.48046875 c 0
 99.041015625 2.0869140625 102.749023438 -1.6875 105.17578125 0.740234375 c 0
 116.458007812 12.021484375 116.458984375 30.30859375 105.17578125 41.5908203125 c 0
 90.5205078125 56.2470703125 66.240234375 50.0849609375 58.49609375 33.23046875 c 1
EndSplineSet
EndChar

StartChar: n
Encoding: 110 110 13
Width: 71
VWidth: 131
Flags: HW
LayerCount: 2
Fore
SplineSet
8.5458984375 21.5068359375 m 0
 8.5458984375 42.1708984375 34.26953125 52.748046875 48.826171875 38.19140625 c 0
 58.03125 28.9853515625 58.037109375 14.033203125 48.826171875 4.8212890625 c 0
 46.431640625 2.427734375 50.1396484375 -1.3466796875 52.56640625 1.0810546875 c 0
 63.833984375 12.34765625 63.853515625 30.6455078125 52.56640625 41.931640625 c 0
 41.2841796875 53.21484375 22.9970703125 53.21484375 11.71484375 41.931640625 c 0
 0.7333984375 30.94921875 0.318359375 12.4775390625 11.7158203125 1.0810546875 c 0
 14.109375 -1.3134765625 17.8837890625 2.39453125 15.4560546875 4.8212890625 c 0
 10.8505859375 9.427734375 8.5458984375 15.4658203125 8.5458984375 21.5068359375 c 0
EndSplineSet
EndChar

StartChar: o
Encoding: 111 111 14
Width: 63
VWidth: 131
Flags: HW
LayerCount: 2
Fore
SplineSet
53.3076171875 24.9765625 m 0
 53.3076171875 39.1337890625 39.7578125 53.912109375 21.8662109375 49.119140625 c 0
 19.07421875 48.3720703125 19.4384765625 43.91796875 22.5517578125 43.91796875 c 0
 24.466796875 43.91796875 26.3828125 44.6826171875 28.3525390625 44.6826171875 c 0
 40.0947265625 44.6826171875 48.015625 34.8564453125 48.015625 24.9765625 c 0
 48.015625 13.37890625 38.2001953125 5.3125 28.3095703125 5.3125 c 0
 13.1044921875 5.3125 3.814453125 21.8955078125 11.2880859375 34.8408203125 c 0
 13.0302734375 37.859375 8.3818359375 40.3916015625 6.7021484375 37.4814453125 c 0
 -2.751953125 21.1064453125 8.94921875 0.0205078125 28.3095703125 0.0205078125 c 0
 40.83984375 0.0205078125 53.3076171875 10.2431640625 53.3076171875 24.9765625 c 0
EndSplineSet
EndChar

StartChar: p
Encoding: 112 112 15
Width: 65
VWidth: 131
Flags: HW
LayerCount: 2
Fore
SplineSet
29.103515625 4.4384765625 m 0
 25.697265625 4.4384765625 25.6796875 -0.8525390625 29.103515625 -0.8525390625 c 0
 43.3232421875 -0.8525390625 54.8525390625 10.6767578125 54.8525390625 24.896484375 c 0
 54.8525390625 39.1162109375 43.3232421875 50.6455078125 29.103515625 50.6455078125 c 0
 14.8837890625 50.6455078125 3.3544921875 39.1162109375 3.3544921875 24.896484375 c 2
 3.3544921875 -78.25390625 l 2
 3.3544921875 -81.66015625 8.6455078125 -81.677734375 8.6455078125 -78.25390625 c 2
 8.6455078125 24.896484375 l 2
 8.6455078125 36.1962890625 17.8037109375 45.3544921875 29.103515625 45.3544921875 c 0
 40.4033203125 45.3544921875 49.5615234375 36.1962890625 49.5615234375 24.896484375 c 0
 49.5615234375 13.5966796875 40.4033203125 4.4384765625 29.103515625 4.4384765625 c 0
EndSplineSet
EndChar

StartChar: q
Encoding: 113 113 16
Width: 65
VWidth: 131
Flags: HW
LayerCount: 2
Fore
SplineSet
29.103515625 -0.8525390625 m 0
 32.509765625 -0.8525390625 32.52734375 4.4384765625 29.103515625 4.4384765625 c 0
 17.8037109375 4.4384765625 8.6455078125 13.5966796875 8.6455078125 24.896484375 c 0
 8.6455078125 36.1962890625 17.8037109375 45.3544921875 29.103515625 45.3544921875 c 0
 40.4033203125 45.3544921875 49.5615234375 36.1962890625 49.5615234375 24.896484375 c 2
 49.5615234375 -78.25390625 l 2
 49.5615234375 -81.66015625 54.8525390625 -81.677734375 54.8525390625 -78.25390625 c 2
 54.8525390625 24.896484375 l 2
 54.8525390625 39.1162109375 43.3232421875 50.6455078125 29.103515625 50.6455078125 c 0
 14.8837890625 50.6455078125 3.3544921875 39.1162109375 3.3544921875 24.896484375 c 0
 3.3544921875 10.6767578125 14.8837890625 -0.8525390625 29.103515625 -0.8525390625 c 0
EndSplineSet
EndChar

StartChar: r
Encoding: 114 114 17
Width: 42
VWidth: 131
Flags: HW
LayerCount: 2
Fore
SplineSet
29.283203125 45.3544921875 m 0
 32.689453125 45.3544921875 32.70703125 50.6455078125 29.283203125 50.6455078125 c 0
 14.98046875 50.6455078125 3.3544921875 39.123046875 3.3544921875 24.8779296875 c 2
 3.3544921875 2.7958984375 l 2
 3.3544921875 -0.6103515625 8.6455078125 -0.6279296875 8.6455078125 2.7958984375 c 2
 8.6455078125 24.8779296875 l 2
 8.6455078125 36.171875 17.869140625 45.3544921875 29.283203125 45.3544921875 c 0
EndSplineSet
EndChar

StartChar: s
Encoding: 115 115 18
Width: 64
VWidth: 131
Flags: HW
LayerCount: 2
Fore
SplineSet
25.9443359375 25 m 0
 25.9443359375 14.0859375 17.0322265625 5.212890625 6 5.212890625 c 0
 2.59375 5.212890625 2.576171875 -0.078125 6 -0.078125 c 0
 19.9189453125 -0.078125 31.2353515625 11.134765625 31.2353515625 25 c 0
 31.2353515625 35.9140625 40.146484375 44.787109375 51.1787109375 44.787109375 c 0
 54.5849609375 44.787109375 54.6025390625 50.078125 51.1787109375 50.078125 c 0
 37.259765625 50.078125 25.9443359375 38.865234375 25.9443359375 25 c 0
EndSplineSet
EndChar

StartChar: t
Encoding: 116 116 19
Width: 47
VWidth: 131
Flags: HW
LayerCount: 2
Fore
SplineSet
22.921875 78.2744140625 m 2
 22.921875 81.6806640625 17.630859375 81.6982421875 17.630859375 78.2744140625 c 2
 17.630859375 50.7490234375 l 1
 6 50.7490234375 l 2
 2.59375 50.7490234375 2.576171875 45.4580078125 6 45.4580078125 c 2
 17.630859375 45.4580078125 l 1
 17.630859375 2.8037109375 l 2
 17.630859375 -0.6025390625 22.921875 -0.6201171875 22.921875 2.8037109375 c 2
 22.921875 45.4580078125 l 1
 34.552734375 45.4580078125 l 2
 37.958984375 45.4580078125 37.9765625 50.7490234375 34.552734375 50.7490234375 c 2
 22.921875 50.7490234375 l 1
 22.921875 78.2744140625 l 2
EndSplineSet
EndChar

StartChar: u
Encoding: 117 117 20
Width: 72
VWidth: 131
Flags: HW
LayerCount: 2
Fore
SplineSet
15.6611328125 45.8271484375 m 0
 18.0556640625 48.220703125 14.34765625 51.9951171875 11.9208984375 49.5673828125 c 0
 0.4970703125 38.14453125 0.498046875 19.6318359375 11.9208984375 8.208984375 c 0
 23.3427734375 -3.2138671875 41.857421875 -3.2138671875 53.2802734375 8.208984375 c 0
 64.6923828125 19.62109375 64.7021484375 38.146484375 53.2802734375 49.5673828125 c 0
 50.88671875 51.9619140625 47.1123046875 48.25390625 49.5400390625 45.8271484375 c 0
 58.8798828125 36.486328125 58.896484375 21.3056640625 49.5400390625 11.94921875 c 0
 40.185546875 2.5966796875 25.0146484375 2.5966796875 15.6611328125 11.94921875 c 0
 6.3076171875 21.302734375 6.3076171875 36.47265625 15.6611328125 45.8271484375 c 0
EndSplineSet
EndChar

StartChar: v
Encoding: 118 118 21
Width: 62
VWidth: 131
Flags: HW
LayerCount: 2
Fore
SplineSet
8.3955078125 48.8564453125 m 2
 6.9990234375 51.8212890625 2.095703125 49.8115234375 3.6044921875 46.6064453125 c 2
 25.015625 1.142578125 l 2
 25.9404296875 -0.8203125 28.853515625 -0.8359375 29.796875 1.1220703125 c 2
 51.68359375 46.5859375 l 2
 53.2001953125 49.7373046875 48.37109375 51.90625 46.912109375 48.876953125 c 2
 27.4375 8.4228515625 l 1
 8.3955078125 48.8564453125 l 2
EndSplineSet
EndChar

StartChar: w
Encoding: 119 119 22
Width: 123
VWidth: 131
Flags: HW
LayerCount: 2
Fore
SplineSet
58.49609375 16.76953125 m 1
 66.232421875 -0.0693359375 90.5107421875 -6.2568359375 105.17578125 8.4091796875 c 0
 116.458984375 19.69140625 116.458007812 37.978515625 105.17578125 49.259765625 c 0
 102.782226562 51.654296875 99.0078125 47.9462890625 101.435546875 45.51953125 c 0
 110.6484375 36.306640625 110.6484375 21.3623046875 101.435546875 12.1494140625 c 0
 92.2216796875 2.9365234375 77.279296875 2.9375 68.06640625 12.1494140625 c 0
 58.8623046875 21.35546875 58.8544921875 36.3076171875 68.0654296875 45.51953125 c 0
 70.4599609375 47.9130859375 66.751953125 51.6875 64.3251953125 49.259765625 c 0
 58.7197265625 43.6552734375 55.8349609375 36.326171875 55.8359375 28.83203125 c 0
 55.8359375 22.7919921875 53.53125 16.755859375 48.92578125 12.1494140625 c 0
 39.712890625 2.9375 24.76953125 2.9365234375 15.5556640625 12.1494140625 c 0
 6.3427734375 21.3623046875 6.3427734375 36.306640625 15.5556640625 45.51953125 c 0
 17.9501953125 47.9130859375 14.2421875 51.6875 11.8154296875 49.259765625 c 0
 0.533203125 37.978515625 0.5322265625 19.69140625 11.8154296875 8.4091796875 c 0
 26.470703125 -6.2470703125 50.751953125 -0.0859375 58.49609375 16.76953125 c 1
EndSplineSet
EndChar

StartChar: x
Encoding: 120 120 23
Width: 63
VWidth: 131
Flags: HW
LayerCount: 2
Fore
SplineSet
50.724609375 0.2890625 m 0
 54.130859375 0.2890625 54.1484375 5.580078125 50.724609375 5.580078125 c 0
 39.12890625 5.580078125 31.3798828125 14.5009765625 31.009765625 26.107421875 c 0
 31.435546875 36.6201171875 40.095703125 45.0126953125 50.724609375 45.0126953125 c 0
 54.130859375 45.0126953125 54.1484375 50.3037109375 50.724609375 50.3037109375 c 0
 40.94921875 50.3037109375 32.4794921875 44.69921875 28.3623046875 36.5283203125 c 1
 24.2451171875 44.69921875 15.775390625 50.3037109375 6 50.3037109375 c 0
 2.59375 50.3037109375 2.576171875 45.0126953125 6 45.0126953125 c 0
 17.595703125 45.0126953125 25.3447265625 36.091796875 25.71484375 24.4853515625 c 0
 25.2890625 13.97265625 16.6279296875 5.580078125 6 5.580078125 c 0
 2.59375 5.580078125 2.576171875 0.2890625 6 0.2890625 c 0
 15.775390625 0.2890625 24.2451171875 5.8935546875 28.3623046875 14.064453125 c 1
 32.4794921875 5.8935546875 40.94921875 0.2890625 50.724609375 0.2890625 c 0
EndSplineSet
EndChar

StartChar: y
Encoding: 121 121 24
Width: 72
VWidth: 131
Flags: HW
LayerCount: 2
Fore
SplineSet
11.9208984375 8.208984375 m 0
 24.9990234375 -4.869140625 46.619140625 -2.029296875 56.548828125 12.09375 c 1
 56.5732421875 -10.3193359375 56.6201171875 -32.708984375 56.607421875 -55.1591796875 c 0
 56.607421875 -66.453125 47.384765625 -75.6357421875 35.9697265625 -75.6357421875 c 0
 32.5634765625 -75.6357421875 32.5458984375 -80.9267578125 35.9697265625 -80.9267578125 c 0
 50.2734375 -80.9267578125 61.8984375 -69.404296875 61.8984375 -55.1591796875 c 0
 61.9111328125 -27.11328125 61.845703125 0.9208984375 61.845703125 28.888671875 c 0
 61.845703125 36.37109375 58.9912109375 43.85546875 53.279296875 49.5673828125 c 0
 50.8857421875 51.9619140625 47.111328125 48.25390625 49.5390625 45.8271484375 c 0
 54.607421875 40.7578125 56.5283203125 34.751953125 56.5283203125 27.775390625 c 0
 55.9599609375 15.470703125 45.2041015625 4.9345703125 32.599609375 4.9345703125 c 0
 26.4677734375 4.9345703125 20.3369140625 7.2734375 15.6611328125 11.94921875 c 0
 6.3076171875 21.302734375 6.3076171875 36.47265625 15.6611328125 45.8271484375 c 0
 18.0556640625 48.220703125 14.34765625 51.9951171875 11.9208984375 49.5673828125 c 0
 0.4970703125 38.14453125 0.498046875 19.6318359375 11.9208984375 8.208984375 c 0
EndSplineSet
EndChar

StartChar: z
Encoding: 122 122 25
Width: 64
VWidth: 131
Flags: HW
LayerCount: 2
Fore
SplineSet
25.9443359375 25 m 0
 25.9443359375 11.134765625 37.259765625 -0.078125 51.1787109375 -0.078125 c 0
 54.5849609375 -0.078125 54.6025390625 5.212890625 51.1787109375 5.212890625 c 0
 40.146484375 5.212890625 31.2353515625 14.0859375 31.2353515625 25 c 0
 31.2353515625 38.865234375 19.9189453125 50.078125 6 50.078125 c 0
 2.59375 50.078125 2.576171875 44.787109375 6 44.787109375 c 0
 17.0322265625 44.787109375 25.9443359375 35.9140625 25.9443359375 25 c 0
EndSplineSet
EndChar

